<svg width="360" height="94" fill="none" xmlns="http://www.w3.org/2000/svg"><path d="m21.736 4.62 20.404 44.4H37.41l-6.873-14.622H11.693L4.879 48.995H0l20.665-44.4 1.07.025Zm-.55 9.432-7.494 16.062h14.952l-7.458-16.062ZM49.19 14.31h4.407v16.23c0 3.965.211 6.693.633 8.184a9.127 9.127 0 0 0 3.614 5.076 10.831 10.831 0 0 0 6.352 1.8c2.22.07 4.409-.558 6.263-1.8a9.245 9.245 0 0 0 3.549-4.746c.438-1.344.658-4.188.662-8.532v-16.2h4.501v17.053c0 4.8-.55 8.41-1.65 10.83a12.752 12.752 0 0 1-4.98 5.7c-2.212 1.371-4.988 2.06-8.327 2.063-3.34.004-6.128-.684-8.363-2.064a12.628 12.628 0 0 1-4.986-5.748c-1.108-2.46-1.66-6.16-1.656-11.1L49.19 14.31ZM92.81 1.404h4.406V14.31h6.991v3.87h-6.991v30.894h-4.407V18.18h-6.015v-3.87h6.015V1.404ZM153.024 14.311h4.407v6a17.198 17.198 0 0 1 4.731-4.854 13.268 13.268 0 0 1 7.027-2.046c1.627-.007 3.239.33 4.731.99a10.243 10.243 0 0 1 3.655 2.64 14.137 14.137 0 0 1 2.461 4.71 16.498 16.498 0 0 1 5.5-6.216 12.877 12.877 0 0 1 7.097-2.124c2.221-.05 4.405.576 6.27 1.8a10.837 10.837 0 0 1 4.039 5.076c.876 2.18 1.315 5.44 1.319 9.78v19.008h-4.507V30.097c0-3.724-.26-6.286-.78-7.686a6.974 6.974 0 0 0-2.685-3.372 7.979 7.979 0 0 0-4.537-1.272 9.77 9.77 0 0 0-5.855 1.914 11.002 11.002 0 0 0-3.874 5.112c-.816 2.128-1.224 5.684-1.224 10.668v13.614h-4.413V31.279c0-4.196-.256-7.046-.768-8.55a7.193 7.193 0 0 0-2.691-3.6 7.706 7.706 0 0 0-4.566-1.356 9.743 9.743 0 0 0-5.714 1.86 11.008 11.008 0 0 0-3.933 5.034c-.852 2.108-1.277 5.334-1.277 9.678v14.73h-4.407l-.006-34.764ZM259.644 1.404h4.406V14.31h6.991v3.87h-7.008v30.894h-4.389V18.18h-6.033v-3.87h6.033V1.404ZM279.162 0c.478-.007.953.085 1.395.272.441.187.84.464 1.172.814a3.628 3.628 0 0 1 1.07 2.622 3.578 3.578 0 0 1-1.07 2.586 3.584 3.584 0 0 1-1.17.804 3.543 3.543 0 0 1-3.94-.804 3.538 3.538 0 0 1-.796-1.181 3.593 3.593 0 0 1-.269-1.405 3.641 3.641 0 0 1 .267-1.421c.183-.451.454-.86.798-1.2a3.44 3.44 0 0 1 1.16-.813A3.4 3.4 0 0 1 279.162 0Zm-2.188 14.31h4.406v34.764h-4.406V14.31ZM287.306 14.31h4.69l11.503 25.338 11.362-25.338h4.732l-15.691 34.764h-.817L287.306 14.31ZM355.139 37.538l3.72 1.985a20.638 20.638 0 0 1-4.223 5.874 16.676 16.676 0 0 1-5.394 3.402 18.48 18.48 0 0 1-6.778 1.2c-5.587 0-9.958-1.858-13.112-5.574a18.97 18.97 0 0 1-4.732-12.6 18.73 18.73 0 0 1 4.004-11.79c3.383-4.4 7.918-6.6 13.603-6.6 5.836 0 10.501 2.248 13.994 6.745 2.48 3.172 3.74 7.134 3.779 11.886h-30.838c.083 4.027 1.357 7.34 3.821 9.935a12.144 12.144 0 0 0 4.148 2.92c1.569.668 3.259.994 4.96.956a14.408 14.408 0 0 0 5.087-.954 13.41 13.41 0 0 0 4.211-2.448 20.817 20.817 0 0 0 3.75-4.938Zm0-9.36a14.95 14.95 0 0 0-2.567-5.719 12.186 12.186 0 0 0-4.466-3.45 13.52 13.52 0 0 0-5.831-1.308 12.484 12.484 0 0 0-8.671 3.3c-1.77 1.6-3.105 4-4.004 7.2l25.539-.024ZM231.586 49.074c9.806 0 17.755-8.21 17.755-18.336 0-10.126-7.949-18.336-17.755-18.336s-17.755 8.21-17.755 18.336c0 10.127 7.949 18.336 17.755 18.336Z" fill="#1D71B8"/><path fill-rule="evenodd" clip-rule="evenodd" d="M144.62 30.738c0 10.127-7.95 18.336-17.755 18.336-9.806 0-17.756-8.21-17.756-18.336 0-10.126 7.95-18.336 17.756-18.336 9.805 0 17.755 8.21 17.755 18.336Zm-16.642-13.105-8.892 12.848a1 1 0 0 0 .822 1.569h3.292a1 1 0 0 1 1 1v9.748c0 .98 1.264 1.375 1.822.569l8.892-12.848a1 1 0 0 0-.822-1.569H130.8a1 1 0 0 1-1-1v-9.748c0-.98-1.264-1.375-1.822-.569Z" fill="#1D71B8"/><path d="M8.928 75.16c1.232 0 2.336.272 3.312.816a5.787 5.787 0 0 1 2.28 2.28c.56.976.84 2.104.84 3.384 0 1.28-.28 2.416-.84 3.408a5.787 5.787 0 0 1-2.28 2.28c-.976.544-2.08.816-3.312.816-.944 0-1.808-.184-2.592-.552a4.99 4.99 0 0 1-1.944-1.608V88H2.184V70.192h2.304V77.2a4.793 4.793 0 0 1 1.92-1.512 5.975 5.975 0 0 1 2.52-.528Zm-.192 10.968c.816 0 1.544-.184 2.184-.552a4.061 4.061 0 0 0 1.536-1.584c.384-.688.576-1.472.576-2.352 0-.88-.192-1.656-.576-2.328a3.858 3.858 0 0 0-1.536-1.584c-.64-.368-1.368-.552-2.184-.552-.8 0-1.528.184-2.184.552a3.858 3.858 0 0 0-1.536 1.584c-.368.672-.552 1.448-.552 2.328 0 .88.184 1.664.552 2.352.368.672.88 1.2 1.536 1.584a4.387 4.387 0 0 0 2.184.552ZM29.448 75.28 23.28 89.272c-.544 1.296-1.184 2.208-1.92 2.736-.72.528-1.592.792-2.616.792a5.464 5.464 0 0 1-1.824-.312 3.615 3.615 0 0 1-1.44-.864l.984-1.728c.656.624 1.416.936 2.28.936.56 0 1.024-.152 1.392-.456.384-.288.728-.792 1.032-1.512l.408-.888L15.96 75.28h2.4l4.44 10.176 4.392-10.176h2.256Zm23.38-4.08V88h-1.969L40.78 75.472V88h-2.4V71.2h1.968l10.08 12.528V71.2h2.4ZM68.56 83.8h-8.928L57.784 88h-2.472l7.608-16.8h2.376L72.928 88h-2.52l-1.848-4.2Zm-.84-1.92-3.624-8.232-3.624 8.232h7.248ZM81.986 71.2c2.176 0 3.888.52 5.136 1.56 1.248 1.04 1.872 2.472 1.872 4.296 0 1.824-.624 3.256-1.872 4.296-1.248 1.04-2.96 1.56-5.136 1.56h-4.152V88h-2.4V71.2h6.552Zm-.072 9.624c1.52 0 2.68-.32 3.48-.96.8-.656 1.2-1.592 1.2-2.808 0-1.216-.4-2.144-1.2-2.784-.8-.656-1.96-.984-3.48-.984h-4.08v7.536h4.08ZM102.38 83.8h-8.928L91.604 88h-2.472l7.608-16.8h2.376l7.632 16.8h-2.52l-1.848-4.2Zm-.84-1.92-3.624-8.232-3.624 8.232h7.248Z" fill="#1D71B8"/></svg>