<svg width="30" height="37" viewBox="0 0 30 37" fill="none" xmlns="http://www.w3.org/2000/svg">
<path d="M24.4887 19.5001C24.4887 16.7501 25.8935 14.167 28.2899 12.7503C26.8025 10.5837 24.4059 9.25101 21.8443 9.25101C19.1175 9.00101 16.4735 10.9177 15.0688 10.9177C13.6641 10.9177 11.5156 9.33401 9.28459 9.33401C6.30986 9.41734 3.50013 11.0831 2.01277 13.7498C-1.12723 19.1664 1.18662 27.2498 4.24399 31.6664C5.73135 33.8331 7.46678 36.2501 9.78047 36.1668C12.0115 36.0834 12.8378 34.7507 15.5647 34.7507C18.2915 34.7507 19.0352 36.1668 21.3489 36.1668C23.7452 36.0834 25.2326 34.0007 26.7199 31.834C27.7942 30.334 28.6204 28.5843 29.1162 26.751C26.3067 25.4177 24.4887 22.5834 24.4887 19.5001Z" fill="white"/>
<path d="M20.0274 6.33335C21.3495 4.75002 22.0104 2.74935 21.8451 0.666016C19.8619 0.916016 17.9616 1.83203 16.6395 3.33202C15.3174 4.83202 14.5738 6.83335 14.7391 8.83335C16.8049 8.91668 18.788 8.00002 20.0274 6.33335Z" fill="white"/>
</svg>
