<svg width="20" height="11" viewBox="0 0 20 11" fill="none" xmlns="http://www.w3.org/2000/svg">
<path d="M11.103 10.5397L19.5574 2.4463C19.6976 2.31337 19.809 2.15522 19.8849 1.98097C19.9609 1.80672 20 1.61982 20 1.43106C20 1.24229 19.9609 1.05539 19.8849 0.881141C19.809 0.706891 19.6976 0.548741 19.5574 0.415811C19.277 0.149486 18.8978 0 18.5024 0C18.1071 0 17.7279 0.149486 17.4475 0.415811L9.96573 7.49393L2.55877 0.415811C2.27841 0.149486 1.89915 0 1.50384 0C1.10852 0 0.729267 0.149486 0.448906 0.415811C0.307518 0.548242 0.195036 0.70617 0.117979 0.880442C0.0409222 1.05471 0.000822067 1.24187 0 1.43106C0.000822067 1.62024 0.0409222 1.8074 0.117979 1.98167C0.195036 2.15594 0.307518 2.31387 0.448906 2.4463L8.90332 10.5397C9.04344 10.6848 9.21351 10.8006 9.40279 10.8799C9.59208 10.9591 9.79649 11 10.0031 11C10.2098 11 10.4142 10.9591 10.6035 10.8799C10.7928 10.8006 10.9628 10.6848 11.103 10.5397Z" fill="#323232"/>
</svg>
