<svg width="16" height="20" viewBox="0 0 16 20" fill="none" xmlns="http://www.w3.org/2000/svg">
<path d="M8.00013 11.429C7.28093 11.429 6.57787 11.2195 5.97988 10.8271C5.38188 10.4347 4.9158 9.87688 4.64057 9.22429C4.36535 8.5717 4.29333 7.8536 4.43364 7.16081C4.57395 6.46802 4.92028 5.83166 5.42884 5.33218C5.93739 4.83271 6.58533 4.49256 7.29071 4.35476C7.9961 4.21695 8.72725 4.28768 9.39171 4.55799C10.0562 4.82831 10.6241 5.28607 11.0237 5.87338C11.4232 6.4607 11.6365 7.1512 11.6365 7.85756C11.6353 8.80442 11.2519 9.71217 10.5702 10.3817C9.88845 11.0512 8.9642 11.4279 8.00013 11.429V11.429ZM8.00013 5.71471C7.56861 5.71471 7.14678 5.84038 6.78798 6.07584C6.42918 6.3113 6.14953 6.64597 5.9844 7.03753C5.81926 7.42908 5.77605 7.85994 5.86024 8.27561C5.94442 8.69129 6.15222 9.07311 6.45735 9.37279C6.76249 9.67248 7.15125 9.87656 7.57448 9.95925C7.99771 10.0419 8.4364 9.99949 8.83508 9.83731C9.23375 9.67512 9.57451 9.40046 9.81425 9.04807C10.054 8.69568 10.1819 8.28138 10.1819 7.85756C10.1814 7.28942 9.95132 6.7447 9.54227 6.34296C9.13323 5.94122 8.57861 5.71527 8.00013 5.71471V5.71471Z" fill="#1D71B8"/>
<path d="M8 20L1.86473 12.8936C1.77948 12.7869 1.69512 12.6795 1.61164 12.5714C0.56363 11.2156 -0.00253177 9.55945 8.51118e-06 7.85714C8.51118e-06 5.7733 0.842863 3.7748 2.34315 2.3013C3.84344 0.827804 5.87827 0 8 0C10.1217 0 12.1566 0.827804 13.6568 2.3013C15.1571 3.7748 16 5.7733 16 7.85714C16.0025 9.55867 15.4366 11.214 14.3891 12.5693L14.3884 12.5714C14.3884 12.5714 14.1702 12.8529 14.1374 12.8907L8 20ZM2.77237 11.7107C2.77382 11.7107 2.94255 11.9307 2.9811 11.9779L8 17.7914L13.0254 11.97C13.0574 11.9307 13.2276 11.7093 13.2284 11.7086C14.0845 10.6008 14.5471 9.24788 14.5454 7.85714C14.5454 6.15218 13.8558 4.51705 12.6283 3.31146C11.4008 2.10587 9.73596 1.42857 8 1.42857C6.26404 1.42857 4.59918 2.10587 3.37167 3.31146C2.14416 4.51705 1.45455 6.15218 1.45455 7.85714C1.45303 9.24874 1.91621 10.6024 2.7731 11.7107H2.77237Z" fill="#1D71B8"/>
</svg>
