<svg width="270" height="270" viewBox="0 0 270 270" fill="none" xmlns="http://www.w3.org/2000/svg">
<path opacity="0.4" d="M84.2514 268.18L29.9242 236.388C25.325 233.687 25.9005 228.993 31.2139 225.882L162.443 149.097C167.773 145.985 175.793 145.65 180.393 148.34L234.72 180.132C239.319 182.833 238.743 187.532 233.43 190.639L102.201 267.429C96.8872 270.535 88.8506 270.875 84.2514 268.18Z" fill="#D6D8E5"/>
<path d="M91.1316 263.998L36.8097 232.207C32.2051 229.506 32.786 224.806 38.0994 221.7L169.324 144.899C174.653 141.793 182.647 141.453 187.278 144.148L241.6 175.94C246.199 178.641 245.624 183.335 240.31 186.447L109.086 263.242C103.773 266.354 95.7361 266.689 91.1316 263.998Z" fill="#B1B4C4"/>
<path d="M33.7026 227.572V222.505L39.5702 224.747L33.7026 227.572Z" fill="#B1B4C4"/>
<path d="M244.707 180.326V175.453L240.044 178.5L244.707 180.326Z" fill="#B1B4C4"/>
<path d="M91.1316 259.704L36.8097 227.913C32.2051 225.212 32.786 220.517 38.0994 217.406L169.324 140.61C174.653 137.499 182.647 137.164 187.278 139.854L241.6 171.645C246.199 174.346 245.624 179.046 240.31 182.152L109.086 258.953C103.773 262.059 95.7361 262.399 91.1316 259.704Z" fill="#616E84"/>
<path d="M43.3644 234.429C43.6423 234.266 43.642 233.738 43.3639 233.25C43.0857 232.762 42.635 232.498 42.3572 232.66C42.0794 232.823 42.0796 233.35 42.3578 233.839C42.6359 234.327 43.0866 234.591 43.3644 234.429Z" fill="#757B89"/>
<path d="M45.9797 235.961C46.2575 235.798 46.2573 235.27 45.9791 234.782C45.701 234.294 45.2503 234.03 44.9724 234.192C44.6946 234.355 44.6948 234.882 44.973 235.371C45.2511 235.859 45.7018 236.123 45.9797 235.961Z" fill="#757B89"/>
<path d="M48.5949 237.487C48.8727 237.324 48.8725 236.797 48.5944 236.308C48.3162 235.82 47.8655 235.556 47.5877 235.719C47.3098 235.881 47.3101 236.409 47.5882 236.897C47.8664 237.386 48.3171 237.65 48.5949 237.487Z" fill="#757B89"/>
<path d="M51.2081 239.021C51.4859 238.858 51.4857 238.331 51.2075 237.842C50.9294 237.354 50.4787 237.09 50.2008 237.253C49.923 237.415 49.9232 237.943 50.2014 238.431C50.4795 238.92 50.9302 239.184 51.2081 239.021Z" fill="#757B89"/>
<path d="M73.6636 252.157C73.9415 251.994 73.9412 251.467 73.6631 250.978C73.385 250.49 72.9342 250.226 72.6564 250.389C72.3786 250.551 72.3788 251.079 72.6569 251.567C72.9351 252.056 73.3858 252.32 73.6636 252.157Z" fill="#757B89"/>
<path d="M76.2742 253.692C76.5521 253.529 76.5518 253.001 76.2737 252.513C75.9955 252.025 75.5448 251.761 75.267 251.923C74.9891 252.086 74.9894 252.614 75.2675 253.102C75.5457 253.59 75.9964 253.854 76.2742 253.692Z" fill="#757B89"/>
<path d="M78.8895 255.218C79.1673 255.056 79.167 254.528 78.8889 254.04C78.6108 253.551 78.1601 253.287 77.8822 253.45C77.6044 253.612 77.6046 254.14 77.8828 254.628C78.1609 255.117 78.6116 255.381 78.8895 255.218Z" fill="#757B89"/>
<path d="M81.5073 256.749C81.7851 256.587 81.7849 256.059 81.5067 255.571C81.2286 255.082 80.7779 254.818 80.5 254.981C80.2222 255.144 80.2224 255.671 80.5006 256.16C80.7787 256.648 81.2294 256.912 81.5073 256.749Z" fill="#757B89"/>
<path d="M65.5508 247.916L58.3722 243.708C58.1202 243.528 57.914 243.289 57.7704 243.012C57.6269 242.735 57.55 242.428 57.5461 242.115C57.5461 241.499 57.9139 241.218 58.3722 241.483L65.5508 245.691C65.8028 245.872 66.009 246.11 66.1525 246.387C66.2961 246.664 66.373 246.972 66.3768 247.284C66.3502 247.9 65.9825 248.181 65.5508 247.916Z" fill="#757B89"/>
<path d="M228.266 192.399L221.583 196.311C221.162 196.554 220.816 196.311 220.816 195.722C220.82 195.431 220.892 195.145 221.026 194.887C221.159 194.629 221.35 194.406 221.583 194.236L228.266 190.331C228.687 190.082 229.028 190.331 229.028 190.914C229.024 191.205 228.953 191.49 228.821 191.748C228.689 192.006 228.498 192.229 228.266 192.399Z" fill="#757B89"/>
<path d="M218.034 198.385L211.351 202.296C210.93 202.545 210.583 202.296 210.583 201.707C210.589 201.417 210.661 201.132 210.795 200.875C210.928 200.618 211.118 200.396 211.351 200.227L218.034 196.316C218.455 196.068 218.796 196.316 218.796 196.905C218.792 197.195 218.721 197.48 218.589 197.737C218.457 197.994 218.266 198.216 218.034 198.385Z" fill="#757B89"/>
<path d="M91.1316 258.926L36.8097 227.135C32.2051 224.434 32.786 219.739 38.0994 216.628L169.324 139.832C174.653 136.721 182.647 136.38 187.278 139.076L241.6 170.867C246.199 173.568 245.624 178.262 240.31 181.374L109.086 258.17C103.773 261.281 95.7361 261.616 91.1316 258.926Z" fill="#20232D"/>
<path d="M235.77 172.137L214.559 159.712L214.511 159.744C212.001 161.208 207.94 161.208 205.451 159.744C202.962 158.28 202.946 155.898 205.451 154.434L205.504 154.402L184.294 141.977C181.096 140.092 175.852 140.092 172.628 141.977L44.809 216.795C41.6114 218.681 41.6114 221.738 44.809 223.623L96.2957 253.756C99.5199 255.641 104.743 255.641 107.962 253.756L235.77 178.959C238.989 177.074 238.989 174.022 235.77 172.137Z" fill="white"/>
<path opacity="0.5" d="M235.77 178.959L107.962 253.756C105.052 255.458 100.501 255.625 97.271 254.242C96.938 254.101 96.614 253.939 96.301 253.756L44.809 223.645C44.0949 223.249 43.4775 222.695 43.0024 222.024C41.7873 220.28 42.3895 218.205 44.809 216.79L172.612 141.998C175.836 140.119 181.053 140.119 184.278 141.998L205.488 154.423H205.435C202.93 155.887 202.93 158.264 205.435 159.733C207.94 161.203 212.006 161.197 214.495 159.733L214.548 159.701L235.759 172.126C238.989 174.022 238.989 177.074 235.77 178.959Z" fill="url(#paint0_linear_11_2826)"/>
<path d="M208.579 159.339C209.924 159.339 211.015 158.7 211.015 157.913C211.015 157.125 209.924 156.487 208.579 156.487C207.234 156.487 206.144 157.125 206.144 157.913C206.144 158.7 207.234 159.339 208.579 159.339Z" fill="#2B303F"/>
<path opacity="0.1" d="M207.844 158.334C207.759 158.303 207.685 158.245 207.633 158.17C207.581 158.095 207.553 158.005 207.553 157.913C207.553 157.821 207.581 157.731 207.633 157.656C207.685 157.58 207.759 157.523 207.844 157.492C208.068 157.377 208.315 157.317 208.566 157.317C208.817 157.317 209.064 157.377 209.288 157.492C209.376 157.52 209.453 157.577 209.507 157.652C209.561 157.728 209.59 157.819 209.59 157.913C209.59 158.006 209.561 158.098 209.507 158.173C209.453 158.249 209.376 158.305 209.288 158.334C209.064 158.449 208.817 158.509 208.566 158.509C208.315 158.509 208.068 158.449 207.844 158.334Z" fill="white"/>
<path d="M217.309 168.193L216.387 167.653L217.927 166.751L218.849 167.291L217.309 168.193Z" fill="#E9EAF2"/>
<path d="M218.54 168.911L217.618 168.371L219.771 167.113L220.693 167.653L218.54 168.911Z" fill="#E9EAF2"/>
<path d="M219.771 169.63L218.849 169.09L221.924 167.291L222.846 167.831L219.771 169.63Z" fill="#E9EAF2"/>
<path d="M221.002 170.354L220.08 169.814L224.386 167.291L225.308 167.831L221.002 170.354Z" fill="#E9EAF2"/>
<path d="M224.999 172.693L223.566 171.85L226.438 170.17L227.872 171.013L224.999 172.693Z" fill="#E9EAF2"/>
<path d="M226.918 173.811L225.479 172.974L228.351 171.294L229.785 172.131L226.918 173.811Z" fill="#E9EAF2"/>
<path d="M228.831 174.929L227.392 174.092L230.264 172.412L231.698 173.249L228.831 174.929Z" fill="#E9EAF2"/>
<path d="M168.753 158.431L162.15 154.564C161.234 154.023 161.351 153.1 162.406 152.484L168.498 148.918C169.037 148.611 169.641 148.438 170.26 148.411C170.878 148.385 171.494 148.507 172.057 148.767L178.661 152.63C179.572 153.17 179.46 154.099 178.405 154.715L172.313 158.28C171.773 158.586 171.169 158.758 170.551 158.785C169.933 158.811 169.317 158.69 168.753 158.431Z" fill="#E9EAF2"/>
<path d="M213.669 184.718L175.026 162.105C174.115 161.565 174.232 160.635 175.282 160.02L181.378 156.454C181.918 156.148 182.521 155.975 183.138 155.949C183.755 155.923 184.37 156.044 184.933 156.303L223.576 178.916C224.487 179.456 224.376 180.385 223.32 181.001L217.229 184.567C216.688 184.871 216.085 185.043 215.467 185.069C214.849 185.095 214.233 184.975 213.669 184.718Z" fill="#E9EAF2"/>
<path d="M155.377 166.259L148.774 162.391C147.862 161.851 147.974 160.927 149.03 160.311L155.121 156.746C155.661 156.439 156.265 156.265 156.883 156.239C157.502 156.213 158.118 156.334 158.681 156.595L165.284 160.441C166.195 160.981 166.083 161.91 165.028 162.526L158.937 166.091C158.398 166.399 157.795 166.575 157.176 166.604C156.558 166.633 155.942 166.515 155.377 166.259Z" fill="#E9EAF2"/>
<path d="M200.292 192.545L161.655 169.932C160.743 169.392 160.855 168.463 161.91 167.847L168.002 164.282C168.542 163.976 169.146 163.804 169.764 163.777C170.382 163.751 170.998 163.872 171.562 164.131L210.2 186.744C211.111 187.284 210.999 188.213 209.944 188.829L203.852 192.394C203.311 192.698 202.708 192.87 202.09 192.897C201.472 192.923 200.856 192.803 200.292 192.545Z" fill="#E9EAF2"/>
<g opacity="0.6">
<path opacity="0.6" d="M142.005 174.086L135.397 170.219C134.486 169.678 134.598 168.755 135.653 168.139L141.75 164.573C142.289 164.266 142.891 164.093 143.509 164.066C144.127 164.04 144.742 164.162 145.304 164.422L151.913 168.285C152.824 168.825 152.707 169.754 151.657 170.37L145.56 173.946C145.02 174.25 144.417 174.421 143.799 174.446C143.182 174.47 142.567 174.347 142.005 174.086Z" fill="#E9EAF2"/>
<path opacity="0.6" d="M186.921 200.373L148.278 177.76C147.367 177.22 147.479 176.291 148.534 175.675L154.625 172.109C155.166 171.804 155.769 171.631 156.387 171.605C157.006 171.579 157.621 171.7 158.185 171.958L196.828 194.571C197.74 195.111 197.622 196.04 196.572 196.656L190.476 200.222C189.936 200.526 189.333 200.698 188.716 200.724C188.099 200.75 187.484 200.63 186.921 200.373Z" fill="#E9EAF2"/>
</g>
<path d="M128.629 181.914L122.042 178.046C121.13 177.506 121.248 176.582 122.297 175.966L128.394 172.396C128.934 172.091 129.537 171.919 130.154 171.893C130.772 171.868 131.387 171.99 131.949 172.25L138.563 176.107C139.474 176.647 139.362 177.576 138.307 178.192L132.167 181.763C131.63 182.066 131.03 182.238 130.416 182.264C129.801 182.29 129.189 182.17 128.629 181.914Z" fill="#E9EAF2"/>
<path d="M173.544 208.201L134.901 185.588C133.99 185.047 134.107 184.118 135.157 183.502L141.254 179.937C141.793 179.631 142.396 179.458 143.014 179.432C143.631 179.406 144.246 179.527 144.809 179.786L183.452 202.399C184.363 202.939 184.246 203.868 183.196 204.484L177.099 208.049C176.559 208.353 175.957 208.525 175.339 208.552C174.722 208.578 174.108 208.458 173.544 208.201Z" fill="#E9EAF2"/>
<path d="M115.252 189.742L108.649 185.874C107.738 185.334 107.85 184.41 108.905 183.794L114.996 180.223C115.537 179.918 116.141 179.746 116.759 179.721C117.377 179.696 117.993 179.818 118.556 180.077L125.159 183.94C126.071 184.48 125.959 185.409 124.904 186.025L118.812 189.612C118.27 189.914 117.666 190.083 117.047 190.106C116.429 190.128 115.814 190.003 115.252 189.742Z" fill="#E9EAF2"/>
<path d="M160.168 216.028L121.509 193.394C120.598 192.853 120.715 191.924 121.765 191.308L127.861 187.743C128.402 187.437 129.005 187.264 129.624 187.238C130.242 187.212 130.858 187.333 131.421 187.592L170.059 210.205C170.97 210.745 170.858 211.674 169.803 212.29L163.712 215.855C163.175 216.16 162.575 216.335 161.96 216.365C161.345 216.395 160.731 216.279 160.168 216.028Z" fill="#E9EAF2"/>
<g opacity="0.6">
<path opacity="0.6" d="M101.876 197.569L95.2725 193.701C94.3612 193.161 94.4731 192.237 95.5283 191.622L101.62 188.051C102.16 187.746 102.764 187.574 103.383 187.548C104.001 187.523 104.616 187.645 105.18 187.905L111.783 191.773C112.699 192.313 112.582 193.242 111.527 193.858L105.436 197.423C104.895 197.728 104.291 197.9 103.673 197.925C103.054 197.95 102.439 197.829 101.876 197.569Z" fill="#E9EAF2"/>
<path opacity="0.6" d="M146.791 223.856L108.153 201.243C107.242 200.702 107.354 199.773 108.409 199.157L114.501 195.592C115.041 195.287 115.645 195.114 116.263 195.088C116.881 195.061 117.497 195.182 118.061 195.441L156.682 218.054C157.594 218.594 157.482 219.523 156.427 220.139L150.335 223.704C149.796 224.006 149.196 224.177 148.581 224.203C147.966 224.229 147.353 224.11 146.791 223.856Z" fill="#E9EAF2"/>
</g>
<path d="M88.5043 205.397L81.8959 201.529C80.9846 200.989 81.1019 200.065 82.1517 199.449L88.2485 195.879C88.7883 195.574 89.3912 195.402 90.0087 195.376C90.6261 195.351 91.2408 195.473 91.8032 195.733L98.4115 199.595C99.3229 200.135 99.2056 201.064 98.1557 201.68L92.059 205.246C91.5196 205.551 90.9169 205.724 90.2994 205.751C89.682 205.777 89.0671 205.656 88.5043 205.397Z" fill="#E9EAF2"/>
<path d="M133.42 231.683L94.7769 209.059C93.8656 208.519 93.9775 207.59 95.0327 206.974L101.124 203.409C101.665 203.103 102.268 202.931 102.886 202.904C103.505 202.878 104.12 202.999 104.684 203.258L143.327 225.871C144.238 226.411 144.121 227.34 143.071 227.956L136.964 231.532C136.425 231.834 135.825 232.005 135.209 232.032C134.594 232.058 133.982 231.939 133.42 231.683Z" fill="#E9EAF2"/>
<g opacity="0.6">
<path opacity="0.6" d="M75.1436 213.224L68.5352 209.357C67.6239 208.816 67.7411 207.893 68.791 207.277L74.8878 203.706C75.4285 203.401 76.0323 203.229 76.6506 203.204C77.2689 203.178 77.8845 203.3 78.4478 203.56L85.0348 207.439C85.9461 207.979 85.8342 208.908 84.779 209.524L78.6823 213.089C78.1436 213.39 77.5431 213.559 76.9287 213.582C76.3143 213.606 75.703 213.483 75.1436 213.224Z" fill="#E9EAF2"/>
<path opacity="0.6" d="M120.043 239.511L81.4002 216.898C80.4889 216.358 80.6061 215.429 81.656 214.813L87.7528 211.247C88.2921 210.942 88.8948 210.769 89.5123 210.742C90.1298 210.716 90.7447 210.837 91.3074 211.096L129.95 233.709C130.862 234.249 130.75 235.178 129.695 235.794L123.598 239.36C123.058 239.664 122.455 239.836 121.838 239.862C121.221 239.888 120.606 239.768 120.043 239.511Z" fill="#E9EAF2"/>
</g>
<g opacity="0.6">
<path opacity="0.6" d="M61.751 221.052L55.148 217.163C54.2366 216.622 54.3486 215.699 55.4038 215.083L61.4952 211.512C62.036 211.207 62.6398 211.035 63.2581 211.01C63.8764 210.984 64.4919 211.106 65.0552 211.366L71.6582 215.229C72.5696 215.769 72.4576 216.698 71.4024 217.314L65.311 220.879C64.7722 221.188 64.1695 221.365 63.5513 221.395C62.933 221.425 62.3164 221.307 61.751 221.052Z" fill="#E9EAF2"/>
<path opacity="0.6" d="M106.667 247.338L68.0289 224.725C67.1123 224.185 67.2295 223.261 68.2794 222.646L74.3762 219.08C74.9165 218.774 75.5201 218.601 76.1384 218.575C76.7567 218.549 77.3725 218.67 77.9362 218.929L116.574 241.542C117.485 242.082 117.373 243.011 116.318 243.627L110.227 247.193C109.685 247.496 109.082 247.667 108.464 247.692C107.846 247.718 107.23 247.596 106.667 247.338Z" fill="#E9EAF2"/>
</g>
<path d="M38.1953 99.9704V126.657C38.1947 126.841 38.1622 127.024 38.0993 127.197C38.065 127.307 38.0204 127.414 37.9661 127.515C37.8067 127.84 37.5636 128.114 37.2626 128.31L1.82258 149.053C1.72299 149.131 1.60276 149.177 1.47738 149.184C1.352 149.192 1.22721 149.161 1.11911 149.097C1.0576 149.05 1.00822 148.989 0.975215 148.918C0.915546 148.79 0.886343 148.65 0.889946 148.508V121.822C0.890521 121.638 0.919289 121.456 0.975215 121.281C1.01359 121.167 1.05989 121.055 1.11378 120.947C1.27678 120.623 1.52132 120.349 1.82258 120.152L37.252 99.3978C37.3532 99.3207 37.475 99.2763 37.6014 99.2705C37.7279 99.2648 37.8531 99.2978 37.9608 99.3653C38.0195 99.4128 38.0684 99.4715 38.1047 99.5382C38.1689 99.6727 38.2 99.821 38.1953 99.9704Z" fill="#DDB545"/>
<path d="M1.18848 149.118L2.55279 149.88L2.63805 147.427L1.18848 149.118Z" fill="#DDB545"/>
<path d="M37.8649 99.333L39.3358 100.149L37.2627 102.666L37.8649 99.333Z" fill="#DDB545"/>
<path d="M39.5703 100.738V127.424C39.567 127.608 39.5346 127.79 39.4744 127.964C39.4377 128.073 39.3932 128.18 39.3411 128.283C39.1818 128.607 38.9386 128.881 38.6377 129.077L3.19759 149.81C3.09691 149.886 2.97612 149.929 2.85075 149.935C2.72539 149.941 2.60118 149.909 2.49412 149.842C2.43395 149.796 2.38476 149.737 2.35023 149.669C2.28671 149.542 2.25556 149.401 2.25963 149.259V122.573C2.25936 122.389 2.29 122.206 2.35023 122.032C2.50243 121.576 2.80067 121.184 3.19759 120.92L38.627 100.187C38.7274 100.11 38.8479 100.066 38.9731 100.059C39.0983 100.053 39.2227 100.084 39.3305 100.149C39.392 100.195 39.4414 100.257 39.4744 100.327C39.5397 100.454 39.5727 100.595 39.5703 100.738Z" fill="#FFD44D"/>
<path opacity="0.12" d="M2.41419 149.939L20.9123 124.89L39.3785 128.196V130.843L2.25964 152.565L2.41419 149.939Z" fill="#323232"/>
<path opacity="0.05" d="M20.9123 124.89L2.45149 121.8L0.751436 121.249L0 151.684L2.49413 149.842L20.9123 124.89Z" fill="#323232"/>
<path opacity="0.05" d="M20.9124 124.89L39.3785 100.187L41.0786 97.653L41.83 127.202L39.3785 128.196L20.9124 124.89Z" fill="#323232"/>
<path d="M265.747 33.6169V64.8624C265.743 65.076 265.705 65.2875 265.635 65.4891C265.591 65.6161 265.539 65.7405 265.481 65.8618C265.294 66.2418 265.008 66.563 264.655 66.791L223.155 91.1002C223.036 91.1884 222.895 91.239 222.748 91.2457C222.601 91.2524 222.455 91.215 222.329 91.138C222.258 91.0837 222.199 91.0134 222.159 90.9327C222.087 90.783 222.053 90.6181 222.057 90.452V59.1795C222.06 58.9732 222.096 58.7688 222.164 58.5744C222.207 58.4408 222.261 58.3107 222.324 58.1855C222.511 57.8027 222.799 57.4794 223.155 57.2509L264.644 32.9525C264.762 32.8622 264.903 32.8097 265.05 32.802C265.198 32.7943 265.344 32.8317 265.47 32.9093C265.543 32.9621 265.602 33.0327 265.641 33.1146C265.715 33.2709 265.752 33.4432 265.747 33.6169Z" fill="#DDB545"/>
<path d="M222.409 91.165L224.008 92.0564L224.109 89.1825L222.409 91.165Z" fill="#DDB545"/>
<path d="M265.358 32.8607L267.085 33.8223L264.655 36.7664L265.358 32.8607Z" fill="#DDB545"/>
<path d="M267.357 34.5137V65.7591C267.352 65.9727 267.314 66.1842 267.245 66.3858C267.2 66.5128 267.148 66.6373 267.09 66.7585C266.9 67.1364 266.615 67.4569 266.264 67.6877L224.765 91.9969C224.646 92.0857 224.504 92.1368 224.357 92.1435C224.21 92.1502 224.064 92.1124 223.939 92.0347C223.866 91.9819 223.807 91.9113 223.768 91.8294C223.697 91.6797 223.662 91.5148 223.667 91.3487V60.0762C223.669 59.8699 223.705 59.6655 223.773 59.4711C223.814 59.3366 223.868 59.2064 223.933 59.0822C224.121 58.6994 224.408 58.3761 224.765 58.1476L266.253 33.8654C266.372 33.7753 266.515 33.723 266.663 33.7153C266.811 33.7077 266.958 33.7448 267.085 33.8222C267.156 33.8765 267.215 33.9468 267.255 34.0275C267.326 34.1794 267.361 34.3458 267.357 34.5137Z" fill="#FFD44D"/>
<path opacity="0.12" d="M223.837 92.1211L245.512 62.788L267.133 66.6612V69.762L223.667 95.2003L223.837 92.1211Z" fill="#323232"/>
<path opacity="0.05" d="M245.512 62.788L223.891 59.174L221.903 58.5258L221.018 94.1685L223.939 92.0131L245.512 62.788Z" fill="#323232"/>
<path opacity="0.05" d="M245.512 62.788L267.133 33.8654L269.121 30.8943L270 65.4998L267.133 66.6613L245.512 62.788Z" fill="#323232"/>
<path d="M175.09 24.1904C175.028 24.0365 174.925 23.9034 174.791 23.8069C174.524 23.6657 174.236 23.569 173.939 23.5206L128.933 10.4098L83.9264 76.2014C83.6116 76.5559 83.3429 76.9499 83.127 77.3736C82.9894 77.6391 82.8736 77.9155 82.7805 78.2001C82.6422 78.6164 82.5685 79.052 82.562 79.4912V145.855C82.5546 146.21 82.6275 146.561 82.7752 146.882C82.8619 147.052 82.9858 147.2 83.1376 147.314C83.4034 147.48 83.7122 147.561 84.0239 147.546C84.3356 147.532 84.6359 147.423 84.8856 147.233L172.985 95.6758C173.961 95.0121 174.694 94.0396 175.069 92.9099C175.219 92.4815 175.299 92.0305 175.303 91.5756V25.2114C175.311 24.8589 175.238 24.5093 175.09 24.1904Z" fill="#DDB545"/>
<path d="M174.669 23.7312L177.435 25.395L173.571 28.2689L174.669 23.7312Z" fill="#CEB95F"/>
<path d="M85.9674 149.016L83.1376 147.287L87.5023 144.1L85.9674 149.016Z" fill="#DDB545"/>
<path d="M128.932 10.4098L131.634 12.0574L177.435 25.3897L175.159 24.023C174.28 23.6347 173.371 23.3204 172.441 23.083L128.932 10.4098Z" fill="#C19B3D"/>
<path d="M178 26.859V93.1962C177.993 93.649 177.913 94.0977 177.765 94.5251C177.673 94.7963 177.561 95.06 177.429 95.3138C177.034 96.121 176.43 96.8043 175.681 97.2909L87.5929 148.848C87.3432 149.04 87.0422 149.15 86.7294 149.166C86.4166 149.181 86.1065 149.101 85.8396 148.935C85.6892 148.818 85.5671 148.668 85.4825 148.497C85.3324 148.179 85.2594 147.829 85.2693 147.476V81.1334C85.2758 80.6941 85.3495 80.2586 85.4878 79.8423C85.5818 79.558 85.6977 79.2817 85.8342 79.0158C86.2326 78.204 86.8427 77.5184 87.5982 77.0332L175.665 25.4868L174.163 26.5348C174.866 26.1297 177.008 25.0709 177.435 25.395C177.585 25.5114 177.707 25.661 177.792 25.8326C177.941 26.153 178.012 26.5049 178 26.859Z" fill="#FFD44D"/>
<path opacity="0.12" d="M85.8396 148.935L131.635 86.8921L177.541 95.114V101.694L85.264 155.693L85.8396 148.935Z" fill="#323232"/>
<path opacity="0.05" d="M131.635 86.8921L85.733 79.2157L81.5175 77.8436L79.6416 153.505L85.8396 148.935L131.635 86.8921Z" fill="#323232"/>
<path opacity="0.05" d="M131.539 86.8056L177.44 25.4059L181.656 19.1017L183.532 92.5642L177.44 95.0275L131.539 86.8056Z" fill="#323232"/>
<path d="M85.8289 79.0158L131.634 12.0574L177.435 25.395L131.634 86.892L85.8289 79.0158Z" fill="#FFD44D"/>
<path opacity="0.3" d="M177.435 25.395L167.069 39.3161L131.634 86.892L96.2051 80.7985L85.8289 79.0158L96.2051 63.8469L121.733 26.5295L131.634 12.0574L141.536 14.9421L167.069 22.3807L177.435 25.395Z" fill="#323232"/>
<path d="M167.069 0V39.3161L131.634 86.892L96.2051 80.7985V41.4716L167.069 0Z" fill="#FAFBFF"/>
<path d="M119.771 58.7473L102.286 68.9788V48.5158L119.771 38.2789V58.7473Z" fill="#E9EAF2"/>
<path d="M140.38 46.6846L122.894 56.9215V36.4531L140.38 26.2162V46.6846Z" fill="#E9EAF2"/>
<path d="M160.988 34.6272L143.498 44.8641V24.3957L160.988 14.1588V34.6272Z" fill="#E9EAF2"/>
<path d="M160.988 43.1246L102.286 77.4762V73.9163L160.988 39.5592V43.1246Z" fill="#E9EAF2"/>
<path d="M152.243 52.3513V55.9167L106.89 82.457L102.281 81.9816V81.5926L152.243 52.3513Z" fill="#E9EAF2"/>
<path d="M143.498 64.5978V68.1631L116.76 83.8075L111.239 83.478L143.498 64.5978Z" fill="#E9EAF2"/>
<path d="M138.898 74.9644V77.1414L137.065 79.5993L126.177 85.9737L121.439 85.185L138.898 74.9644Z" fill="#E9EAF2"/>
<defs>
<linearGradient id="paint0_linear_11_2826" x1="140.289" y1="255.171" x2="140.289" y2="140.589" gradientUnits="userSpaceOnUse">
<stop offset="0.21" stop-color="white" stop-opacity="0"/>
<stop offset="1" stop-color="white" stop-opacity="0.2"/>
</linearGradient>
</defs>
</svg>
