<svg width="360" height="94" viewBox="0 0 360 94" fill="none" xmlns="http://www.w3.org/2000/svg">
<path d="M21.7356 4.6197L42.1404 49.0195H37.4088L30.5362 34.3976H11.6928L4.87941 48.9955H0L20.665 4.5957L21.7356 4.6197ZM21.1855 14.0517L13.6919 30.1136H28.6436L21.1855 14.0517Z" fill="#1D71B8"/>
<path d="M49.1909 14.3105H53.5972V30.5405C53.5972 34.5045 53.8081 37.2325 54.23 38.7244C54.8073 40.7956 56.0871 42.5933 57.8437 43.8004C59.7284 45.0486 61.9464 45.6771 64.1958 45.6004C66.4167 45.6706 68.6046 45.0418 70.4592 43.8004C72.1252 42.6582 73.3727 40.9898 74.0079 39.0544C74.4456 37.7104 74.6664 34.8665 74.6703 30.5225V14.3225H79.1712V31.3745C79.1712 36.1745 78.6212 39.7844 77.5211 42.2044C76.4692 44.5727 74.7324 46.5606 72.5411 47.9044C70.3291 49.2764 67.5533 49.9644 64.2136 49.9684C60.8739 49.9724 58.0862 49.2844 55.8506 47.9044C53.6446 46.5552 51.9033 44.5477 50.8647 42.1564C49.7567 39.6964 49.2047 35.9965 49.2087 31.0565L49.1909 14.3105Z" fill="#1D71B8"/>
<path d="M92.8094 1.4043H97.2157V14.3102H104.207V18.1802H97.2157V49.0741H92.8094V18.1802H86.7944V14.3102H92.8094V1.4043Z" fill="#1D71B8"/>
<path d="M153.024 14.3111H157.431V20.311C158.675 18.3906 160.283 16.7405 162.162 15.457C164.272 14.128 166.705 13.4197 169.189 13.4111C170.816 13.4037 172.428 13.7409 173.92 14.4011C175.316 14.9962 176.564 15.8978 177.575 17.041C178.684 18.4378 179.519 20.0364 180.036 21.751C181.316 19.2367 183.21 17.0968 185.536 15.535C187.649 14.1452 190.115 13.4073 192.633 13.4111C194.854 13.3603 197.038 13.9874 198.903 15.211C200.73 16.4434 202.14 18.2152 202.942 20.287C203.818 22.467 204.257 25.727 204.261 30.067V49.0749H199.754V30.097C199.754 26.373 199.494 23.811 198.974 22.411C198.454 21.0268 197.513 19.846 196.289 19.039C194.935 18.1667 193.355 17.7238 191.752 17.767C189.649 17.7556 187.598 18.4262 185.897 19.681C184.132 20.9552 182.783 22.7354 182.023 24.793C181.207 26.921 180.799 30.477 180.799 35.461V49.0749H176.386V31.279C176.386 27.083 176.13 24.233 175.618 22.729C175.125 21.2672 174.181 20.005 172.927 19.129C171.581 18.2047 169.985 17.7305 168.361 17.773C166.312 17.7742 164.314 18.4245 162.647 19.633C160.873 20.8779 159.504 22.6303 158.714 24.667C157.862 26.775 157.437 30.001 157.437 34.345V49.0749H153.03L153.024 14.3111Z" fill="#1D71B8"/>
<path d="M259.644 1.4043H264.05V14.3102H271.041V18.1802H264.033V49.0741H259.644V18.1802H253.611V14.3102H259.644V1.4043Z" fill="#1D71B8"/>
<path d="M279.162 0.000424605C279.64 -0.00709951 280.115 0.0854457 280.557 0.27229C280.998 0.459134 281.397 0.736271 281.729 1.08642C282.073 1.42707 282.345 1.83515 282.529 2.28588C282.714 2.73661 282.805 3.22059 282.799 3.70841C282.804 4.19065 282.711 4.6687 282.527 5.11334C282.343 5.55798 282.071 5.95986 281.729 6.2944C281.395 6.63835 280.998 6.91153 280.559 7.09799C280.12 7.28446 279.649 7.38049 279.174 7.38049C278.698 7.38049 278.227 7.28446 277.789 7.09799C277.35 6.91153 276.952 6.63835 276.619 6.2944C276.277 5.95956 276.006 5.55749 275.823 5.11283C275.64 4.66816 275.549 4.19026 275.554 3.70841C275.547 3.22102 275.638 2.7373 275.821 2.2866C276.004 1.83589 276.275 1.42758 276.619 1.08642C276.946 0.737521 277.341 0.46097 277.779 0.274096C278.216 0.0872214 278.687 -0.00594826 279.162 0.000424605ZM276.974 14.3104H281.38V49.0742H276.974V14.3104Z" fill="#1D71B8"/>
<path d="M287.306 14.3105H291.996L303.499 39.6484L314.861 14.3105H319.593L303.902 49.0744H303.085L287.306 14.3105Z" fill="#1D71B8"/>
<path d="M355.139 37.5375L358.859 39.5234C357.805 41.7193 356.375 43.7081 354.636 45.3974C353.069 46.8707 351.238 48.0256 349.242 48.7994C347.075 49.6208 344.777 50.0277 342.464 49.9994C336.877 49.9994 332.506 48.1414 329.352 44.4254C326.294 40.9626 324.609 36.4742 324.62 31.8255C324.574 27.5446 325.989 23.3793 328.624 20.0355C332.007 15.6355 336.542 13.4355 342.227 13.4355C348.063 13.4355 352.728 15.6835 356.221 20.1795C358.701 23.3515 359.961 27.3135 360 32.0655H329.162C329.245 36.0935 330.519 39.4054 332.983 42.0014C334.149 43.2588 335.562 44.2537 337.131 44.9214C338.7 45.5891 340.39 45.9148 342.091 45.8774C343.829 45.8693 345.552 45.5462 347.178 44.9234C348.716 44.3732 350.143 43.5437 351.389 42.4754C352.876 41.0292 354.14 39.3647 355.139 37.5375ZM355.139 28.1775C354.695 26.1074 353.82 24.1577 352.572 22.4595C351.369 20.9723 349.84 19.7909 348.106 19.0095C346.281 18.1433 344.29 17.6967 342.275 17.7015C339.076 17.6437 335.976 18.8236 333.604 21.0015C331.834 22.6015 330.499 25.0015 329.6 28.2015L355.139 28.1775Z" fill="#1D71B8"/>
<path d="M231.586 49.0742C241.392 49.0742 249.341 40.8649 249.341 30.7383C249.341 20.6116 241.392 12.4023 231.586 12.4023C221.78 12.4023 213.831 20.6116 213.831 30.7383C213.831 40.8649 221.78 49.0742 231.586 49.0742Z" fill="#1D71B8"/>
<path fill-rule="evenodd" clip-rule="evenodd" d="M144.62 30.7383C144.62 40.8649 136.67 49.0742 126.865 49.0742C117.059 49.0742 109.109 40.8649 109.109 30.7383C109.109 20.6116 117.059 12.4023 126.865 12.4023C136.67 12.4023 144.62 20.6116 144.62 30.7383ZM127.978 17.633L119.086 30.4809C118.627 31.1442 119.102 32.05 119.908 32.05H123.2C123.752 32.05 124.2 32.4977 124.2 33.05V42.7979C124.2 43.7783 125.464 44.1732 126.022 43.367L134.914 30.5191C135.373 29.8558 134.898 28.95 134.092 28.95H130.8C130.248 28.95 129.8 28.5023 129.8 27.95V18.2021C129.8 17.2217 128.536 16.8268 127.978 17.633Z" fill="#1D71B8"/>
<path d="M8.928 75.16C10.16 75.16 11.264 75.432 12.24 75.976C13.216 76.52 13.976 77.28 14.52 78.256C15.08 79.232 15.36 80.36 15.36 81.64C15.36 82.92 15.08 84.056 14.52 85.048C13.976 86.024 13.216 86.784 12.24 87.328C11.264 87.872 10.16 88.144 8.928 88.144C7.984 88.144 7.12 87.96 6.336 87.592C5.552 87.224 4.904 86.688 4.392 85.984V88H2.184V70.192H4.488V77.2C5 76.528 5.64 76.024 6.408 75.688C7.176 75.336 8.016 75.16 8.928 75.16ZM8.736 86.128C9.552 86.128 10.28 85.944 10.92 85.576C11.576 85.192 12.088 84.664 12.456 83.992C12.84 83.304 13.032 82.52 13.032 81.64C13.032 80.76 12.84 79.984 12.456 79.312C12.088 78.624 11.576 78.096 10.92 77.728C10.28 77.36 9.552 77.176 8.736 77.176C7.936 77.176 7.208 77.36 6.552 77.728C5.896 78.096 5.384 78.624 5.016 79.312C4.648 79.984 4.464 80.76 4.464 81.64C4.464 82.52 4.648 83.304 5.016 83.992C5.384 84.664 5.896 85.192 6.552 85.576C7.208 85.944 7.936 86.128 8.736 86.128ZM29.4478 75.28L23.2798 89.272C22.7358 90.568 22.0958 91.48 21.3598 92.008C20.6398 92.536 19.7678 92.8 18.7438 92.8C18.1198 92.8 17.5118 92.696 16.9198 92.488C16.3438 92.296 15.8638 92.008 15.4798 91.624L16.4638 89.896C17.1198 90.52 17.8798 90.832 18.7438 90.832C19.3038 90.832 19.7678 90.68 20.1358 90.376C20.5198 90.088 20.8638 89.584 21.1678 88.864L21.5758 87.976L15.9598 75.28H18.3598L22.7998 85.456L27.1918 75.28H29.4478ZM52.8274 71.2V88H50.8594L40.7794 75.472V88H38.3794V71.2H40.3474L50.4274 83.728V71.2H52.8274ZM68.5599 83.8H59.6319L57.7839 88H55.3119L62.9199 71.2H65.2959L72.9279 88H70.4079L68.5599 83.8ZM67.7199 81.88L64.0959 73.648L60.4719 81.88H67.7199ZM81.9861 71.2C84.1621 71.2 85.8741 71.72 87.1221 72.76C88.3701 73.8 88.9941 75.232 88.9941 77.056C88.9941 78.88 88.3701 80.312 87.1221 81.352C85.8741 82.392 84.1621 82.912 81.9861 82.912H77.8341V88H75.4341V71.2H81.9861ZM81.9141 80.824C83.4341 80.824 84.5941 80.504 85.3941 79.864C86.1941 79.208 86.5941 78.272 86.5941 77.056C86.5941 75.84 86.1941 74.912 85.3941 74.272C84.5941 73.616 83.4341 73.288 81.9141 73.288H77.8341V80.824H81.9141ZM102.38 83.8H93.4523L91.6043 88H89.1322L96.7403 71.2H99.1163L106.748 88H104.228L102.38 83.8ZM101.54 81.88L97.9163 73.648L94.2923 81.88H101.54Z" fill="#1D71B8"/>
</svg>
